<svg width="130" height="163" viewBox="0 0 130 163" fill="none" xmlns="http://www.w3.org/2000/svg">
<path d="M0.753613 64.5151L15.4307 29.667H112.593L126.096 64.5151H0.753613Z" fill="#B4846C" stroke="black"/>
<rect x="5.33301" y="65.5151" width="116.163" height="96.9849" fill="#B4846C" stroke="black"/>
<path d="M1.00146 64.3203H15.9116C16.1877 64.3203 16.4116 64.5442 16.4116 64.8203V87.3039C16.4116 89.2369 14.8446 90.8039 12.9116 90.8039H4.00146C2.06847 90.8039 0.501465 89.2369 0.501465 87.3039V64.8203C0.501465 64.5442 0.725322 64.3203 1.00146 64.3203Z" fill="#FCDEC0" stroke="black"/>
<path d="M16.7036 64.3203H31.6137C31.8898 64.3203 32.1137 64.5442 32.1137 64.8203V87.3039C32.1137 89.2369 30.5467 90.8039 28.6137 90.8039H19.7036C17.7706 90.8039 16.2036 89.2369 16.2036 87.3039V64.8203C16.2036 64.5442 16.4275 64.3203 16.7036 64.3203Z" fill="#B4846C" stroke="black"/>
<path d="M32.4058 64.3203H47.3159C47.592 64.3203 47.8159 64.5442 47.8159 64.8203V87.3039C47.8159 89.2369 46.2489 90.8039 44.3159 90.8039H35.4058C33.4728 90.8039 31.9058 89.2369 31.9058 87.3039V64.8203C31.9058 64.5442 32.1296 64.3203 32.4058 64.3203Z" fill="#FCDEC0" stroke="black"/>
<path d="M48.1079 64.3203H63.018C63.2941 64.3203 63.518 64.5442 63.518 64.8203V87.3039C63.518 89.2369 61.951 90.8039 60.018 90.8039H51.1079C49.1749 90.8039 47.6079 89.2369 47.6079 87.3039V64.8203C47.6079 64.5442 47.8318 64.3203 48.1079 64.3203Z" fill="#B4846C" stroke="black"/>
<path d="M63.8101 64.3203H78.7201C78.9963 64.3203 79.2201 64.5442 79.2201 64.8203V87.3039C79.2201 89.2369 77.6531 90.8039 75.7201 90.8039H66.8101C64.8771 90.8039 63.3101 89.2369 63.3101 87.3039V64.8203C63.3101 64.5442 63.5339 64.3203 63.8101 64.3203Z" fill="#FCDEC0" stroke="black"/>
<path d="M79.5122 64.3203H94.4223C94.6984 64.3203 94.9223 64.5442 94.9223 64.8203V87.3039C94.9223 89.2369 93.3553 90.8039 91.4223 90.8039H82.5122C80.5792 90.8039 79.0122 89.2369 79.0122 87.3039V64.8203C79.0122 64.5442 79.2361 64.3203 79.5122 64.3203Z" fill="#B4846C" stroke="black"/>
<path d="M95.2148 64.3203H110.125C110.401 64.3203 110.625 64.5442 110.625 64.8203V87.3039C110.625 89.2369 109.058 90.8039 107.125 90.8039H98.2148C96.2818 90.8039 94.7148 89.2369 94.7148 87.3039V64.8203C94.7148 64.5442 94.9387 64.3203 95.2148 64.3203Z" fill="#FCDEC0" stroke="black"/>
<path d="M110.917 64.3203H125.828C126.104 64.3203 126.328 64.5442 126.328 64.8203V87.3039C126.328 89.2369 124.761 90.8039 122.828 90.8039H113.917C111.984 90.8039 110.417 89.2369 110.417 87.3039V64.8203C110.417 64.5442 110.641 64.3203 110.917 64.3203Z" fill="#B4846C" stroke="black"/>
<rect x="19.5" y="119.5" width="26.7809" height="22.8987" fill="#D9D9D9" stroke="black"/>
<rect x="72.5" y="117.5" width="33" height="45" fill="#D9D9D9" stroke="black"/>
<ellipse cx="79.5" cy="139" rx="2.5" ry="3" fill="#040000"/>
<ellipse cx="16.935" cy="22.7077" rx="16.935" ry="22.7077" transform="matrix(0.492798 0.870143 -0.874629 0.484793 49.3848 13.6323)" fill="#533737"/>
<path d="M28.3306 45.0618C31.2723 39.6012 38.0325 31.0972 48.3246 28.7415C50.3273 28.1353 54.812 27.01 56.7295 27.358C58.0376 27.5954 57.1866 28.6153 56.0054 29.5479C54.9484 30.3824 53.6346 30.8059 52.2956 30.9991L46.8259 31.7884C45.6888 31.9524 44.5825 32.294 43.6182 32.9108C40.2448 35.0685 35.0248 39.5009 33.0519 45.2689C31.8823 48.6885 27.8156 49.6063 24.1883 49.2348L19.1753 48.7213C18.6342 48.6659 18.013 48.3375 17.6317 47.9512C16.1127 46.4121 20.725 46.664 22.8814 46.8749C23.5569 46.941 24.2471 46.9989 24.9146 47.0484C26.3461 47.1544 27.6555 46.315 28.3306 45.0618Z" fill="white" stroke="white"/>
<ellipse cx="10.2809" cy="17.9684" rx="10.2809" ry="17.9684" transform="matrix(-0.189281 -0.981923 0.982665 -0.185391 3.89258 66.8306)" fill="#3C2A2A"/>
<path d="M16.4464 56.8902L2.81221 57.5005C2.40336 57.5188 2.04215 57.2341 1.96473 56.8324C1.87254 56.3542 2.21444 55.9028 2.69995 55.8617L15.5176 54.7778C16.9308 54.6583 18.3014 54.24 19.5383 53.5506L24.7239 50.6607C25.9758 49.9629 27.3645 49.543 28.7956 49.4293L36.0284 48.8549C36.4369 48.8225 36.8249 49.0415 37.0086 49.408C37.337 50.0637 36.8746 50.8357 36.1419 50.8551L29.1545 51.0399C28.0942 51.0679 27.0661 51.4034 26.1956 52.0055L21.6803 55.1287C20.1378 56.1957 18.3239 56.8061 16.4464 56.8902Z" fill="white" stroke="white"/>
<ellipse cx="12.4375" cy="21.3726" rx="12.4375" ry="21.3726" transform="matrix(-0.285689 -0.958322 0.959974 -0.280089 85.6182 68.6641)" fill="#3C2A2A"/>
<path d="M99.7663 55.2349L83.1991 57.5663C82.7096 57.6352 82.2417 57.3352 82.1006 56.8618C81.9321 56.2964 82.2908 55.7123 82.8716 55.6066L98.2767 52.8022C99.695 52.544 101.039 51.9831 102.217 51.1578L108.625 46.6678C109.817 45.8325 111.18 45.2681 112.617 45.0142L121.475 43.4491C121.964 43.3627 122.458 43.5825 122.722 44.0037C123.192 44.7547 122.725 45.7347 121.846 45.8417L113.642 46.8411C112.37 46.996 111.175 47.5224 110.205 48.3541L104.874 52.9289C103.43 54.1687 101.657 54.9688 99.7663 55.2349Z" fill="white" stroke="white"/>
<ellipse cx="12.5755" cy="21.1408" rx="12.5755" ry="21.1408" transform="matrix(-0.190717 -0.981645 0.984744 -0.174008 52.6821 32.0464)" fill="#3C2A2A"/>
<path d="M67.8804 19.9253L53.2765 20.1999C52.7943 20.209 52.3716 19.8679 52.2799 19.3957C52.1686 18.823 52.5821 18.2895 53.1655 18.2531L66.8392 17.4C68.3984 17.3028 69.9073 16.844 71.2454 16.0605L76.7345 12.8463C78.089 12.0532 79.6182 11.593 81.1972 11.5034L88.8693 11.0681C89.36 11.0403 89.8222 11.3159 90.0321 11.7615C90.401 12.5449 89.8382 13.4325 88.9732 13.4314L81.7273 13.4225C80.4805 13.4209 79.272 13.8148 78.2776 14.5468L73.5838 18.0023C71.9365 19.2149 69.9447 19.8864 67.8804 19.9253Z" fill="white" stroke="white"/>
<ellipse cx="10.4616" cy="16.2093" rx="10.4616" ry="16.2093" transform="matrix(-0.118287 0.992979 -0.993272 -0.115803 88.8062 40.5605)" fill="#533737"/>
<path d="M63.3014 48.48C67.1938 46.8286 74.8248 44.9656 81.9456 47.66C83.3608 48.0991 86.434 49.1974 87.4053 50.0781C87.9999 50.6173 87.3229 50.8267 86.4028 50.8829C85.2266 50.9548 84.0766 50.5964 83.0091 50.1006L80.0831 48.7418C79.1748 48.3199 78.21 48.0229 77.2089 47.9736C74.3254 47.8317 69.6523 48.1498 66.2325 50.2136C64.2409 51.4154 61.3249 50.3759 59.4942 48.9497L56.686 46.7617C56.4268 46.5598 56.2241 46.2061 56.1627 45.8832C55.9166 44.5891 58.5014 46.3587 59.5414 47.1665C60.0213 47.5392 60.526 47.9169 61.0055 48.2673C61.6683 48.7516 62.5441 48.8013 63.3014 48.48Z" fill="white" stroke="white"/>
<ellipse cx="9.32225" cy="16.7082" rx="9.32225" ry="16.7082" transform="matrix(0.209798 0.977745 -0.976854 0.213909 108.575 18.8452)" fill="#8D5144"/>
<path d="M103.473 28.2687L110.154 27.8484C110.354 27.8358 110.532 27.9711 110.574 28.167C110.627 28.4106 110.449 28.6443 110.201 28.6594L104.342 29.014C103.842 29.0442 103.349 29.1434 102.876 29.3088L96.2531 31.6254C95.4249 31.9151 94.5627 32.0945 93.6887 32.1591L89.3041 32.4831C87.9706 32.5816 86.6861 33.0349 85.5835 33.7962L84.8951 34.2715C84.3034 34.6801 83.6188 34.9326 82.9048 35.0057L78.6947 35.4369C78.3153 35.4757 77.9918 35.1672 78.0119 34.7858C78.0286 34.4704 78.278 34.2163 78.5926 34.1942L81.7369 33.9737C82.4058 33.9268 83.0541 33.7193 83.6271 33.3685L84.6594 32.7367C85.9859 31.9248 87.4961 31.4649 89.0469 31.4007L92.389 31.2622C93.3224 31.2236 94.2463 31.054 95.1337 30.7584L101.395 28.6733C102.068 28.4491 102.766 28.3131 103.473 28.2687Z" fill="white" stroke="white"/>
<rect x="5.5" y="96.5" width="115" height="13" rx="6.5" fill="#7D5A50" stroke="black"/>
<path d="M16.0795 101H15.0227C14.9602 100.696 14.8509 100.429 14.6946 100.199C14.5412 99.9688 14.3537 99.7756 14.1321 99.6193C13.9134 99.4602 13.6705 99.3409 13.4034 99.2614C13.1364 99.1818 12.858 99.142 12.5682 99.142C12.0398 99.142 11.5611 99.2756 11.1321 99.5426C10.706 99.8097 10.3665 100.203 10.1136 100.723C9.86364 101.243 9.73864 101.881 9.73864 102.636C9.73864 103.392 9.86364 104.03 10.1136 104.55C10.3665 105.07 10.706 105.463 11.1321 105.73C11.5611 105.997 12.0398 106.131 12.5682 106.131C12.858 106.131 13.1364 106.091 13.4034 106.011C13.6705 105.932 13.9134 105.814 14.1321 105.658C14.3537 105.499 14.5412 105.304 14.6946 105.074C14.8509 104.841 14.9602 104.574 15.0227 104.273H16.0795C16 104.719 15.8551 105.118 15.6449 105.47C15.4347 105.822 15.1733 106.122 14.8608 106.369C14.5483 106.614 14.1974 106.8 13.8082 106.928C13.4219 107.055 13.0085 107.119 12.5682 107.119C11.8239 107.119 11.1619 106.938 10.5824 106.574C10.0028 106.21 9.54688 105.693 9.21449 105.023C8.8821 104.352 8.71591 103.557 8.71591 102.636C8.71591 101.716 8.8821 100.92 9.21449 100.25C9.54688 99.5795 10.0028 99.0625 10.5824 98.6989C11.1619 98.3352 11.8239 98.1534 12.5682 98.1534C13.0085 98.1534 13.4219 98.2173 13.8082 98.3452C14.1974 98.473 14.5483 98.6605 14.8608 98.9077C15.1733 99.152 15.4347 99.4503 15.6449 99.8026C15.8551 100.152 16 100.551 16.0795 101ZM20.31 107.136C19.7191 107.136 19.2006 106.996 18.7546 106.714C18.3114 106.433 17.9648 106.04 17.7148 105.534C17.4677 105.028 17.3441 104.437 17.3441 103.761C17.3441 103.08 17.4677 102.484 17.7148 101.976C17.9648 101.467 18.3114 101.072 18.7546 100.791C19.2006 100.51 19.7191 100.369 20.31 100.369C20.9009 100.369 21.418 100.51 21.8612 100.791C22.3072 101.072 22.6538 101.467 22.9009 101.976C23.1509 102.484 23.2759 103.08 23.2759 103.761C23.2759 104.437 23.1509 105.028 22.9009 105.534C22.6538 106.04 22.3072 106.433 21.8612 106.714C21.418 106.996 20.9009 107.136 20.31 107.136ZM20.31 106.233C20.7589 106.233 21.1282 106.118 21.418 105.888C21.7077 105.658 21.9222 105.355 22.0614 104.98C22.2006 104.605 22.2702 104.199 22.2702 103.761C22.2702 103.324 22.2006 102.916 22.0614 102.538C21.9222 102.161 21.7077 101.855 21.418 101.622C21.1282 101.389 20.7589 101.273 20.31 101.273C19.8612 101.273 19.4918 101.389 19.2021 101.622C18.9123 101.855 18.6978 102.161 18.5586 102.538C18.4194 102.916 18.3498 103.324 18.3498 103.761C18.3498 104.199 18.4194 104.605 18.5586 104.98C18.6978 105.355 18.9123 105.658 19.2021 105.888C19.4918 106.118 19.8612 106.233 20.31 106.233ZM27.7259 100.455V101.307H24.1974V100.455H27.7259ZM25.2543 107V99.5511C25.2543 99.1761 25.3423 98.8636 25.5185 98.6136C25.6946 98.3636 25.9233 98.1761 26.2045 98.0511C26.4858 97.9261 26.7827 97.8636 27.0952 97.8636C27.3423 97.8636 27.544 97.8835 27.7003 97.9233C27.8565 97.9631 27.973 98 28.0497 98.0341L27.7599 98.9034C27.7088 98.8864 27.6378 98.8651 27.5469 98.8395C27.4588 98.8139 27.3423 98.8011 27.1974 98.8011C26.8651 98.8011 26.625 98.8849 26.4773 99.0526C26.3324 99.2202 26.2599 99.4659 26.2599 99.7898V107H25.2543ZM32.0501 100.455V101.307H28.5217V100.455H32.0501ZM29.5785 107V99.5511C29.5785 99.1761 29.6665 98.8636 29.8427 98.6136C30.0188 98.3636 30.2475 98.1761 30.5288 98.0511C30.81 97.9261 31.1069 97.8636 31.4194 97.8636C31.6665 97.8636 31.8683 97.8835 32.0245 97.9233C32.1808 97.9631 32.2972 98 32.3739 98.0341L32.0842 98.9034C32.033 98.8864 31.962 98.8651 31.8711 98.8395C31.783 98.8139 31.6665 98.8011 31.5217 98.8011C31.1893 98.8011 30.9492 98.8849 30.8015 99.0526C30.6566 99.2202 30.5842 99.4659 30.5842 99.7898V107H29.5785ZM35.9343 107.136C35.3036 107.136 34.7596 106.997 34.3022 106.719C33.8477 106.438 33.4968 106.045 33.2496 105.543C33.0053 105.037 32.8832 104.449 32.8832 103.778C32.8832 103.108 33.0053 102.517 33.2496 102.006C33.4968 101.491 33.8406 101.091 34.2809 100.804C34.7241 100.514 35.2411 100.369 35.832 100.369C36.1729 100.369 36.5096 100.426 36.842 100.54C37.1744 100.653 37.4769 100.838 37.7496 101.094C38.0224 101.347 38.2397 101.682 38.4016 102.099C38.5636 102.517 38.6445 103.031 38.6445 103.642V104.068H33.5991V103.199H37.6218C37.6218 102.83 37.5479 102.5 37.4002 102.21C37.2553 101.92 37.0479 101.692 36.7781 101.524C36.511 101.357 36.1957 101.273 35.832 101.273C35.4315 101.273 35.0849 101.372 34.7923 101.571C34.5025 101.767 34.2795 102.023 34.1232 102.338C33.967 102.653 33.8888 102.991 33.8888 103.352V103.932C33.8888 104.426 33.9741 104.845 34.1445 105.189C34.3178 105.53 34.5579 105.79 34.8647 105.969C35.1715 106.145 35.5281 106.233 35.9343 106.233C36.1985 106.233 36.4371 106.196 36.6502 106.122C36.8661 106.045 37.0522 105.932 37.2085 105.781C37.3647 105.628 37.4854 105.437 37.5707 105.21L38.5423 105.483C38.44 105.812 38.2681 106.102 38.0266 106.352C37.7852 106.599 37.4869 106.793 37.1317 106.932C36.7766 107.068 36.3775 107.136 35.9343 107.136ZM42.9187 107.136C42.288 107.136 41.744 106.997 41.2866 106.719C40.832 106.438 40.4812 106.045 40.234 105.543C39.9897 105.037 39.8675 104.449 39.8675 103.778C39.8675 103.108 39.9897 102.517 40.234 102.006C40.4812 101.491 40.8249 101.091 41.2653 100.804C41.7085 100.514 42.2255 100.369 42.8164 100.369C43.1573 100.369 43.494 100.426 43.8263 100.54C44.1587 100.653 44.4613 100.838 44.734 101.094C45.0067 101.347 45.2241 101.682 45.386 102.099C45.5479 102.517 45.6289 103.031 45.6289 103.642V104.068H40.5835V103.199H44.6062C44.6062 102.83 44.5323 102.5 44.3846 102.21C44.2397 101.92 44.0323 101.692 43.7624 101.524C43.4954 101.357 43.18 101.273 42.8164 101.273C42.4158 101.273 42.0692 101.372 41.7766 101.571C41.4869 101.767 41.2638 102.023 41.1076 102.338C40.9513 102.653 40.8732 102.991 40.8732 103.352V103.932C40.8732 104.426 40.9585 104.845 41.1289 105.189C41.3022 105.53 41.5423 105.79 41.8491 105.969C42.1559 106.145 42.5124 106.233 42.9187 106.233C43.1829 106.233 43.4215 106.196 43.6346 106.122C43.8505 106.045 44.0366 105.932 44.1928 105.781C44.3491 105.628 44.4698 105.437 44.555 105.21L45.5266 105.483C45.4244 105.812 45.2525 106.102 45.011 106.352C44.7695 106.599 44.4712 106.793 44.1161 106.932C43.761 107.068 43.3619 107.136 42.9187 107.136ZM50.6701 107V98.2727H53.7212C54.3292 98.2727 54.8306 98.3778 55.2255 98.5881C55.6204 98.7955 55.9144 99.0753 56.1076 99.4276C56.3008 99.777 56.3974 100.165 56.3974 100.591C56.3974 100.966 56.3306 101.276 56.1971 101.52C56.0664 101.764 55.8931 101.957 55.6772 102.099C55.4641 102.241 55.2326 102.347 54.9826 102.415V102.5C55.2496 102.517 55.5181 102.611 55.788 102.781C56.0579 102.952 56.2837 103.196 56.4656 103.514C56.6474 103.832 56.7383 104.222 56.7383 104.682C56.7383 105.119 56.6388 105.513 56.44 105.862C56.2411 106.212 55.9272 106.489 55.4982 106.693C55.0692 106.898 54.511 107 53.8235 107H50.6701ZM51.7269 106.062H53.8235C54.5138 106.062 55.0039 105.929 55.2937 105.662C55.5863 105.392 55.7326 105.065 55.7326 104.682C55.7326 104.386 55.6573 104.114 55.5067 103.864C55.3562 103.611 55.1417 103.409 54.8633 103.259C54.5849 103.105 54.2553 103.028 53.8746 103.028H51.7269V106.062ZM51.7269 102.108H53.6871C54.0053 102.108 54.2923 102.045 54.5479 101.92C54.8065 101.795 55.011 101.619 55.1616 101.392C55.315 101.165 55.3917 100.898 55.3917 100.591C55.3917 100.207 55.2582 99.8821 54.9911 99.6151C54.7241 99.3452 54.3008 99.2102 53.7212 99.2102H51.7269V102.108ZM61.0827 107.136C60.4521 107.136 59.908 106.997 59.4506 106.719C58.9961 106.438 58.6452 106.045 58.3981 105.543C58.1538 105.037 58.0316 104.449 58.0316 103.778C58.0316 103.108 58.1538 102.517 58.3981 102.006C58.6452 101.491 58.989 101.091 59.4293 100.804C59.8725 100.514 60.3896 100.369 60.9805 100.369C61.3214 100.369 61.658 100.426 61.9904 100.54C62.3228 100.653 62.6254 100.838 62.8981 101.094C63.1708 101.347 63.3881 101.682 63.5501 102.099C63.712 102.517 63.793 103.031 63.793 103.642V104.068H58.7475V103.199H62.7702C62.7702 102.83 62.6964 102.5 62.5487 102.21C62.4038 101.92 62.1964 101.692 61.9265 101.524C61.6594 101.357 61.3441 101.273 60.9805 101.273C60.5799 101.273 60.2333 101.372 59.9407 101.571C59.6509 101.767 59.4279 102.023 59.2717 102.338C59.1154 102.653 59.0373 102.991 59.0373 103.352V103.932C59.0373 104.426 59.1225 104.845 59.293 105.189C59.4663 105.53 59.7063 105.79 60.0131 105.969C60.32 106.145 60.6765 106.233 61.0827 106.233C61.3469 106.233 61.5856 106.196 61.7987 106.122C62.0146 106.045 62.2006 105.932 62.3569 105.781C62.5131 105.628 62.6339 105.437 62.7191 105.21L63.6907 105.483C63.5884 105.812 63.4165 106.102 63.1751 106.352C62.9336 106.599 62.6353 106.793 62.2802 106.932C61.9251 107.068 61.5259 107.136 61.0827 107.136ZM67.2489 107.153C66.8342 107.153 66.4577 107.075 66.1197 106.919C65.7816 106.76 65.5131 106.531 65.3143 106.233C65.1154 105.932 65.016 105.568 65.016 105.142C65.016 104.767 65.0898 104.463 65.2376 104.23C65.3853 103.994 65.5827 103.81 65.8299 103.676C66.0771 103.543 66.3498 103.443 66.6481 103.378C66.9492 103.31 67.2518 103.256 67.5558 103.216C67.9535 103.165 68.2759 103.126 68.5231 103.101C68.7731 103.072 68.9549 103.026 69.0685 102.96C69.185 102.895 69.2433 102.781 69.2433 102.619V102.585C69.2433 102.165 69.1282 101.838 68.8981 101.605C68.6708 101.372 68.3256 101.256 67.8626 101.256C67.3825 101.256 67.006 101.361 66.7333 101.571C66.4606 101.781 66.2688 102.006 66.158 102.244L65.2035 101.903C65.3739 101.506 65.6012 101.196 65.8853 100.974C66.1722 100.75 66.4847 100.594 66.8228 100.506C67.1637 100.415 67.4989 100.369 67.8285 100.369C68.0387 100.369 68.2802 100.395 68.5529 100.446C68.8285 100.494 69.0941 100.595 69.3498 100.749C69.6083 100.902 69.8228 101.134 69.9933 101.443C70.1637 101.753 70.2489 102.168 70.2489 102.688V107H69.2433V106.114H69.1921C69.1239 106.256 69.0103 106.408 68.8512 106.57C68.6921 106.732 68.4805 106.869 68.2163 106.983C67.9521 107.097 67.6296 107.153 67.2489 107.153ZM67.4023 106.25C67.8001 106.25 68.1353 106.172 68.408 106.016C68.6836 105.859 68.891 105.658 69.0302 105.411C69.1722 105.163 69.2433 104.903 69.2433 104.631V103.71C69.2006 103.761 69.1069 103.808 68.962 103.851C68.82 103.891 68.6552 103.926 68.4677 103.957C68.283 103.986 68.1026 104.011 67.9265 104.034C67.7532 104.054 67.6126 104.071 67.5046 104.085C67.2433 104.119 66.9989 104.175 66.7717 104.251C66.5472 104.325 66.3654 104.437 66.2262 104.588C66.0898 104.736 66.0217 104.937 66.0217 105.193C66.0217 105.543 66.1509 105.807 66.4094 105.986C66.6708 106.162 67.0018 106.25 67.4023 106.25ZM73.0902 103.062V107H72.0845V100.455H73.0561V101.477H73.1413C73.2947 101.145 73.5277 100.878 73.8402 100.676C74.1527 100.472 74.5561 100.369 75.0504 100.369C75.4936 100.369 75.8814 100.46 76.2138 100.642C76.5462 100.821 76.8047 101.094 76.9893 101.46C77.174 101.824 77.2663 102.284 77.2663 102.841V107H76.2607V102.909C76.2607 102.395 76.1271 101.994 75.8601 101.707C75.593 101.418 75.2266 101.273 74.7607 101.273C74.4396 101.273 74.1527 101.342 73.8999 101.482C73.6499 101.621 73.4524 101.824 73.3075 102.091C73.1626 102.358 73.0902 102.682 73.0902 103.062ZM83.7404 101.92L82.837 102.176C82.7802 102.026 82.6964 101.879 82.5856 101.737C82.4776 101.592 82.3299 101.473 82.1424 101.379C81.9549 101.286 81.7148 101.239 81.4222 101.239C81.0217 101.239 80.6879 101.331 80.4208 101.516C80.1566 101.697 80.0245 101.929 80.0245 102.21C80.0245 102.46 80.1154 102.658 80.2972 102.803C80.479 102.947 80.7631 103.068 81.1495 103.165L82.1211 103.403C82.7063 103.545 83.1424 103.763 83.4293 104.055C83.7163 104.345 83.8597 104.719 83.8597 105.176C83.8597 105.551 83.7518 105.886 83.5359 106.182C83.3228 106.477 83.0245 106.71 82.641 106.881C82.2575 107.051 81.8114 107.136 81.3029 107.136C80.6353 107.136 80.0827 106.991 79.6452 106.702C79.2077 106.412 78.9308 105.989 78.8143 105.432L79.7688 105.193C79.8597 105.545 80.0316 105.81 80.2844 105.986C80.5401 106.162 80.8739 106.25 81.2859 106.25C81.7546 106.25 82.1268 106.151 82.4023 105.952C82.6808 105.75 82.82 105.509 82.82 105.227C82.82 105 82.7404 104.81 82.5813 104.656C82.4222 104.5 82.1779 104.384 81.8484 104.307L80.7575 104.051C80.158 103.909 79.7177 103.689 79.4364 103.391C79.158 103.089 79.0188 102.713 79.0188 102.261C79.0188 101.892 79.1225 101.565 79.3299 101.281C79.5401 100.997 79.8256 100.774 80.1864 100.612C80.5501 100.45 80.962 100.369 81.4222 100.369C82.07 100.369 82.5785 100.511 82.9478 100.795C83.32 101.08 83.5842 101.455 83.7404 101.92ZM93.6577 100.455C93.6065 100.023 93.3991 99.6875 93.0355 99.4489C92.6719 99.2102 92.2259 99.0909 91.6974 99.0909C91.3111 99.0909 90.973 99.1534 90.6832 99.2784C90.3963 99.4034 90.1719 99.5753 90.0099 99.794C89.8509 100.013 89.7713 100.261 89.7713 100.54C89.7713 100.773 89.8267 100.973 89.9375 101.141C90.0511 101.305 90.196 101.443 90.3722 101.554C90.5483 101.662 90.733 101.751 90.9261 101.822C91.1193 101.891 91.2969 101.946 91.4588 101.989L92.3452 102.227C92.5724 102.287 92.8253 102.369 93.1037 102.474C93.3849 102.58 93.6534 102.723 93.9091 102.905C94.1676 103.084 94.3807 103.314 94.5483 103.595C94.7159 103.876 94.7997 104.222 94.7997 104.631C94.7997 105.102 94.6761 105.528 94.429 105.909C94.1847 106.29 93.8267 106.592 93.3551 106.817C92.8864 107.041 92.3168 107.153 91.6463 107.153C91.0213 107.153 90.4801 107.053 90.0227 106.851C89.5682 106.649 89.2102 106.368 88.9489 106.007C88.6903 105.646 88.544 105.227 88.5099 104.75H89.6009C89.6293 105.08 89.7401 105.352 89.9332 105.568C90.1293 105.781 90.3764 105.94 90.6747 106.045C90.9759 106.148 91.2997 106.199 91.6463 106.199C92.0497 106.199 92.4119 106.134 92.733 106.003C93.054 105.869 93.3082 105.685 93.4957 105.449C93.6832 105.21 93.777 104.932 93.777 104.614C93.777 104.324 93.696 104.088 93.5341 103.906C93.3722 103.724 93.1591 103.577 92.8949 103.463C92.6307 103.349 92.3452 103.25 92.0384 103.165L90.9645 102.858C90.2827 102.662 89.7429 102.382 89.3452 102.018C88.9474 101.655 88.7486 101.179 88.7486 100.591C88.7486 100.102 88.8807 99.6761 89.1449 99.3125C89.4119 98.946 89.7699 98.6619 90.2188 98.4602C90.6705 98.2557 91.1747 98.1534 91.7315 98.1534C92.294 98.1534 92.794 98.2543 93.2315 98.456C93.669 98.6548 94.0156 98.9276 94.2713 99.2741C94.5298 99.6207 94.6662 100.014 94.6804 100.455H93.6577ZM97.4066 103.062V107H96.4009V98.2727H97.4066V101.477H97.4918C97.6452 101.139 97.8754 100.871 98.1822 100.672C98.4918 100.47 98.9038 100.369 99.418 100.369C99.864 100.369 100.255 100.459 100.59 100.638C100.925 100.814 101.185 101.085 101.37 101.452C101.557 101.815 101.651 102.278 101.651 102.841V107H100.645V102.909C100.645 102.389 100.51 101.987 100.24 101.703C99.9734 101.416 99.6026 101.273 99.1282 101.273C98.7987 101.273 98.5032 101.342 98.2418 101.482C97.9833 101.621 97.7788 101.824 97.6282 102.091C97.4805 102.358 97.4066 102.682 97.4066 103.062ZM106.15 107.136C105.559 107.136 105.04 106.996 104.594 106.714C104.151 106.433 103.805 106.04 103.555 105.534C103.308 105.028 103.184 104.437 103.184 103.761C103.184 103.08 103.308 102.484 103.555 101.976C103.805 101.467 104.151 101.072 104.594 100.791C105.04 100.51 105.559 100.369 106.15 100.369C106.741 100.369 107.258 100.51 107.701 100.791C108.147 101.072 108.494 101.467 108.741 101.976C108.991 102.484 109.116 103.08 109.116 103.761C109.116 104.437 108.991 105.028 108.741 105.534C108.494 106.04 108.147 106.433 107.701 106.714C107.258 106.996 106.741 107.136 106.15 107.136ZM106.15 106.233C106.599 106.233 106.968 106.118 107.258 105.888C107.548 105.658 107.762 105.355 107.901 104.98C108.04 104.605 108.11 104.199 108.11 103.761C108.11 103.324 108.04 102.916 107.901 102.538C107.762 102.161 107.548 101.855 107.258 101.622C106.968 101.389 106.599 101.273 106.15 101.273C105.701 101.273 105.332 101.389 105.042 101.622C104.752 101.855 104.538 102.161 104.398 102.538C104.259 102.916 104.19 103.324 104.19 103.761C104.19 104.199 104.259 104.605 104.398 104.98C104.538 105.355 104.752 105.658 105.042 105.888C105.332 106.118 105.701 106.233 106.15 106.233ZM110.651 109.455V100.455H111.623V101.494H111.742C111.816 101.381 111.918 101.236 112.049 101.06C112.182 100.881 112.373 100.722 112.62 100.582C112.87 100.44 113.208 100.369 113.634 100.369C114.185 100.369 114.671 100.507 115.091 100.783C115.512 101.058 115.84 101.449 116.076 101.955C116.311 102.46 116.429 103.057 116.429 103.744C116.429 104.438 116.311 105.038 116.076 105.547C115.84 106.053 115.513 106.445 115.096 106.723C114.678 106.999 114.196 107.136 113.651 107.136C113.23 107.136 112.894 107.067 112.641 106.928C112.388 106.786 112.194 106.625 112.057 106.446C111.921 106.264 111.816 106.114 111.742 105.994H111.657V109.455H110.651ZM111.64 103.727C111.64 104.222 111.712 104.658 111.857 105.036C112.002 105.411 112.213 105.705 112.492 105.918C112.77 106.128 113.111 106.233 113.515 106.233C113.935 106.233 114.286 106.122 114.567 105.901C114.851 105.676 115.064 105.375 115.206 104.997C115.351 104.616 115.424 104.193 115.424 103.727C115.424 103.267 115.353 102.852 115.211 102.483C115.071 102.111 114.86 101.817 114.576 101.601C114.294 101.382 113.941 101.273 113.515 101.273C113.105 101.273 112.762 101.376 112.483 101.584C112.205 101.788 111.995 102.075 111.853 102.445C111.711 102.811 111.64 103.239 111.64 103.727Z" fill="white"/>
</svg>
